# xmcd CD database file
#
# Track frame offsets:
#	150
#	12229
#	26218
#	38565
#	48228
#	61420
#	77645
#	91341
#	108150
#	124205
#	138203
#	152777
#	168228
#	179264
#	194789
#	209382
#	223276
#	235015
#	249427
#	268242
#	283187
#	301538
#	314996
#	332207
#
# Disc length: 4677 seconds
#
# Revision: 0
# Processed by: cddbd v1.5.1PL2 Copyright (c) Steve Scherf et al.
# Submitted via: CDex 1.50beta8
#
DISCID=5f124318
DTITLE=Glen Campbell - Sings the Best of Jimmy Webb 1967-1992
DYEAR=1900
DGENRE=Country
TTITLE0=Galveston
TTITLE1=Wichita Lineman
TTITLE2=By the Time I Get to Phoenix
TTITLE3=Just Another Piece of Paper
TTITLE4=Where's the Playground Susie?
TTITLE5=Didn't We
TTITLE6=Honey Come Back
TTITLE7=Just This One Time
TTITLE8=You Might as Well Smile
TTITLE9=The Moon's a Harsh Mistress
TTITLE10=Wishing Now
TTITLE11=Ocean in His Eyes
TTITLE12=It's a Sin When You Love Somebody
TTITLE13=I Keep It Hid
TTITLE14=Adoration
TTITLE15=Highwayman
TTITLE16=This Is Sarah's Song
TTITLE17=I was Too Busy Loving You
TTITLE18=Still Within the Sound of My Voice
TTITLE19=For Sure, For Certain, Forever, For Always
TTITLE20=Lightning in a Bottle
TTITLE21=If These Walls Could Speak
TTITLE22=Light Years
TTITLE23=Only One Life
EXTD=
EXTT0=
EXTT1=
EXTT2=
EXTT3=
EXTT4=
EXTT5=
EXTT6=
EXTT7=
EXTT8=
EXTT9=
EXTT10=
EXTT11=
EXTT12=
EXTT13=
EXTT14=
EXTT15=
EXTT16=
EXTT17=
EXTT18=
EXTT19=
EXTT20=
EXTT21=
EXTT22=
EXTT23=
PLAYORDER=
